<svg id="Layer_2" data-name="Layer 2" xmlns="http://www.w3.org/2000/svg" width="48" height="48" viewBox="0 0 48 48">
  <g id="Layer_1" data-name="Layer 1">
    <g id="video_tutorials" data-name="video tutorials">
      <g id="_Grupo_" data-name="&lt;Grupo&gt;">
        <path id="Path_23" data-name="Path 23" d="M45.52,18.81H30.68L23.26,24V2.48A1.48,1.48,0,0,1,24.74,1H45.52A1.48,1.48,0,0,1,47,2.48V17.32a1.48,1.48,0,0,1-1.48,1.49Z" fill="none" stroke="#000" stroke-linecap="round" stroke-linejoin="round" stroke-width="2"/>
        <path id="Path_24" data-name="Path 24" d="M31.42,5.45v8.91L39.58,9.9Z" fill="none" stroke="#000" stroke-linecap="round" stroke-linejoin="round" stroke-width="2"/>
      </g>
      <path id="Path_25" data-name="Path 25" d="M44.03,23.26V39.58" fill="none" stroke="#000" stroke-linecap="round" stroke-linejoin="round" stroke-width="2"/>
      <path id="Path_26" data-name="Path 26" d="M4,39.58v-23a3,3,0,0,1,3-3H18.81M42.55,47H5.45A4.45,4.45,0,0,1,1,42.55H18.81V44H29.19V42.55H47A4.45,4.45,0,0,1,42.55,47Z" fill="none" stroke="#000" stroke-linecap="round" stroke-linejoin="round" stroke-width="2"/>
      <g id="_Grupo_2" data-name="&lt;Grupo&gt;">
        <path id="Path_27" data-name="Path 27" d="M18.46,29.94c1.75-1.17,1.59-1.91,1.79-3.61a4.64,4.64,0,0,0-.3-2.74A3.41,3.41,0,0,0,18,22a4.49,4.49,0,0,0-2.85,0,3.41,3.41,0,0,0-2,1.58,4.64,4.64,0,0,0-.3,2.74c.21,1.7,0,2.45,1.79,3.61M7.68,38.84V37.35c0-1.48.74-2.23,2.23-3l3-1.48a9,9,0,0,0,3.71.74,9,9,0,0,0,3.71-.74L32,24.24a1.56,1.56,0,0,1,2,.14h0a1.56,1.56,0,0,1,0,2.21l-9.89,9.89a3,3,0,0,0-.87,2.1v.25" fill="none" stroke="#000" stroke-linecap="round" stroke-linejoin="round" stroke-width="2"/>
      </g>
    </g>
  </g>
</svg>
