<svg xmlns="http://www.w3.org/2000/svg" xmlns:xlink="http://www.w3.org/1999/xlink" width="56" height="47" viewBox="0 0 56 47">
  <defs>
    <clipPath id="clip-path">
      <rect id="Rectangle_260" data-name="Rectangle 260" width="56" height="47" transform="translate(1503 476)" fill="#fff" stroke="#707070" stroke-width="1"/>
    </clipPath>
  </defs>
  <g id="calendar" transform="translate(-1503 -476)" clip-path="url(#clip-path)">
    <g id="Layer_23" data-name="Layer 23" transform="translate(1503 471.501)">
      <path id="Path_840" data-name="Path 840" d="M53.375,7h-4.42a2.188,2.188,0,0,0-4.288,0H42.83a2.187,2.187,0,0,0-4.287,0H17.455a2.187,2.187,0,0,0-4.287,0H11.33A2.188,2.188,0,0,0,7.043,7H2.625A2.625,2.625,0,0,0,0,9.625v38.5A2.625,2.625,0,0,0,2.625,50.75h50.75A2.625,2.625,0,0,0,56,48.125V9.625A2.625,2.625,0,0,0,53.375,7Zm-49,38.5A2.625,2.625,0,0,1,1.75,42.875V15.75h52.5V34.125c0,2.233-2.307,3.61-4.375,4.133V20.125A.875.875,0,0,0,49,19.25H7a.875.875,0,0,0-.875.875v21A.875.875,0,0,0,7,42H46.737c-.656,1.793-1.942,3.5-3.862,3.5Zm36.75-5.25h-5.25V35h5.25Zm-7,0h-5.25V35h5.25Zm-7,0h-5.25V35h5.25Zm-7,0h-5.25V35h5.25Zm-7,0H7.875V35h5.25ZM14.875,21h5.25v5.25h-5.25Zm7,0h5.25v5.25h-5.25Zm7,0h5.25v5.25h-5.25Zm7,0h5.25v5.25h-5.25Zm7,0h5.25v5.25h-5.25Zm-35,7h5.25v5.25H7.875Zm7,0h5.25v5.25h-5.25Zm7,0h5.25v5.25h-5.25Zm7,0h5.25v5.25h-5.25Zm7,0h5.25v5.25h-5.25Zm7,0h5.25v5.25h-5.25Zm-29.75-1.75H7.875V21h5.25ZM42.875,35h5.25v3.5a.875.875,0,0,0-.875.875,6.347,6.347,0,0,1-.067.875H42.875Zm6.079,5.2a9.663,9.663,0,0,0,5.016-2.068,9.644,9.644,0,0,1-7.087,7.087A9.663,9.663,0,0,0,48.955,40.2ZM46.375,7.438a.438.438,0,0,1,.875,0v2.625a.438.438,0,0,1-.875,0Zm-6.125,0a.438.438,0,0,1,.875,0v2.625a.438.438,0,0,1-.875,0Zm-25.375,0a.438.438,0,0,1,.875,0v2.625a.438.438,0,0,1-.875,0Zm-6.125,0a.438.438,0,0,1,.875,0v2.625a.438.438,0,0,1-.875,0Zm-7,2.188a.875.875,0,0,1,.875-.875H7v1.313a2.188,2.188,0,0,0,4.375,0V8.75h1.75v1.313a2.188,2.188,0,0,0,4.375,0V8.75h21v1.313a2.188,2.188,0,0,0,4.375,0V8.75h1.75v1.313a2.188,2.188,0,0,0,4.375,0V8.75h4.375a.875.875,0,0,1,.875.875V14H1.75Zm52.5,38.5a.875.875,0,0,1-.875.875H2.625a.875.875,0,0,1-.875-.875V46.352a4.33,4.33,0,0,0,2.625.9h40.25a11.369,11.369,0,0,0,9.625-5.337Z" stroke="#707070" stroke-width="0.875"/>
    </g>
  </g>
</svg>
