<svg xmlns="http://www.w3.org/2000/svg" width="48" height="48.001" viewBox="0 0 48 48.001">
  <g id="Layer_2" data-name="Layer 2" transform="translate(0 0.001)">
    <g id="Layer_1" data-name="Layer 1">
      <g id="unlimited_access" data-name="unlimited access">
        <g id="_Grupo_" data-name="&lt;Grupo&gt;">
          <path id="Path_81" data-name="Path 81" d="M6.94,37.35H2.48A1.48,1.48,0,0,1,1,35.87V2.48A1.48,1.48,0,0,1,2.48,1h43A1.48,1.48,0,0,1,47,2.48V35.87a1.48,1.48,0,0,1-1.48,1.48H41.06" fill="none" stroke="#000" stroke-linecap="round" stroke-linejoin="round" stroke-width="2"/>
          <path id="Path_82" data-name="Path 82" d="M1,9.16H47" fill="none" stroke="#000" stroke-linecap="round" stroke-linejoin="round" stroke-width="2"/>
          <path id="Path_83" data-name="Path 83" d="M4.96,4.82h.75" fill="none" stroke="#000" stroke-linecap="round" stroke-linejoin="round" stroke-width="2"/>
          <path id="Path_84" data-name="Path 84" d="M11.96,4.82h.75" fill="none" stroke="#000" stroke-linecap="round" stroke-linejoin="round" stroke-width="2"/>
          <path id="Path_85" data-name="Path 85" d="M8.46,4.82h.75" fill="none" stroke="#000" stroke-linecap="round" stroke-linejoin="round" stroke-width="2"/>
        </g>
        <g id="_Grupo_2" data-name="&lt;Grupo&gt;">
          <rect id="Rectangle_45" data-name="Rectangle 45" width="25.23" height="19.29" rx="2" transform="translate(11.39 27.71)" fill="none" stroke="#000" stroke-linecap="round" stroke-linejoin="round" stroke-width="2"/>
          <path id="Path_86" data-name="Path 86" d="M26.38,39.75l.49.48a3.71,3.71,0,1,0,0-5.74c-.1.08-1.5,1.48-2.89,2.87l-2.86,2.87a3.71,3.71,0,1,1,0-5.74l.57.57m-5.85-7.35V21.77A8.19,8.19,0,0,1,24,13.61h0a8.19,8.19,0,0,1,8.16,8.16v.37A1.86,1.86,0,0,1,30.31,24h0a1.86,1.86,0,0,1-1.85-1.85v-.37A4.46,4.46,0,0,0,24,17.32h0a4.46,4.46,0,0,0-4.45,4.45V24" fill="none" stroke="#000" stroke-linecap="round" stroke-linejoin="round" stroke-width="2"/>
        </g>
      </g>
    </g>
  </g>
</svg>
