<svg xmlns="http://www.w3.org/2000/svg" width="48" height="48.028" viewBox="0 0 48 48.028">
  <g id="Layer_2" transform="translate(0 0.028)">
    <g id="Layer_1-2">
      <g id="literature">
        <path id="Path_74" data-name="Path 74" d="M21.8,30s10.5.3,19.3-11.1c0,0-3.3-.3-4.5-1.5h0c5.9-.8,9.6-6,10.4-16.4C47,1,30.7.3,23.3,9.2A8.577,8.577,0,0,0,21,15.1l-1.5-2.2a18.843,18.843,0,0,0-3.7,13.4" fill="none" stroke="#000" stroke-linecap="round" stroke-linejoin="round" stroke-width="2"/>
        <path id="Path_75" data-name="Path 75" d="M14.4,35.1s8.2-14.8,18.6-23" fill="none" stroke="#000" stroke-linecap="round" stroke-miterlimit="10" stroke-width="2"/>
        <path id="Path_76" data-name="Path 76" d="M29.2,1H1c5.5,16,1.9,32.5.5,37.7a6.581,6.581,0,0,0,3.6,7.8,7.512,7.512,0,0,0,2.6.5h0a6.7,6.7,0,0,0,6.7-6.7H38.9A6.7,6.7,0,0,1,32.2,47H7.7" fill="none" stroke="#000" stroke-linecap="round" stroke-linejoin="round" stroke-width="2"/>
        <path id="Path_77" data-name="Path 77" d="M31.4,35.9A27.267,27.267,0,0,0,32.9,27" fill="none" stroke="#000" stroke-linecap="round" stroke-miterlimit="10" stroke-width="2"/>
        <path id="Path_78" data-name="Path 78" d="M7.7,9.2H18.1" fill="none" stroke="#000" stroke-linecap="round" stroke-miterlimit="10" stroke-width="2"/>
        <path id="Path_79" data-name="Path 79" d="M8.4,15.1h5.2" fill="none" stroke="#000" stroke-linecap="round" stroke-miterlimit="10" stroke-width="2"/>
        <path id="Path_80" data-name="Path 80" d="M8.4,21h3.7" fill="none" stroke="#000" stroke-linecap="round" stroke-miterlimit="10" stroke-width="2"/>
      </g>
    </g>
  </g>
</svg>
