<svg xmlns="http://www.w3.org/2000/svg" width="18.024" height="15.279" viewBox="0 0 18.024 15.279">
  <path id="XMLID_1022_" d="M14.3,20.614v.979a.725.725,0,0,1-.8.686H.705A.634.634,0,0,1,0,21.593V11.917a.758.758,0,0,1,.705-.823H3a.784.784,0,0,1,0,1.567H1.567v8.051H12.733v-.1a.784.784,0,1,1,1.567,0Zm3.487-7.307-4.858,4.956a.789.789,0,0,1-.862.176.8.8,0,0,1-.509-.744V15.56c-1.567-.039-5.328.118-6.7,2.527a.792.792,0,0,1-.686.411.666.666,0,0,1-.2-.02.794.794,0,0,1-.588-.764,8.152,8.152,0,0,1,2.272-5.406,8.438,8.438,0,0,1,5.9-2.39V7.784a.788.788,0,0,1,.49-.725.814.814,0,0,1,.881.176l4.878,4.956A.8.8,0,0,1,17.786,13.308ZM16.1,12.739,13.124,9.723v.96a.773.773,0,0,1-.784.784,7.478,7.478,0,0,0-5.563,1.939,5.6,5.6,0,0,0-1.234,1.861,11.391,11.391,0,0,1,5.6-1.293c.744,0,1.234.059,1.293.059a.784.784,0,0,1,.686.784v.96Z" transform="translate(0 -7)"/>
</svg>
