<svg xmlns="http://www.w3.org/2000/svg" width="37.6" height="48" viewBox="0 0 37.6 48">
  <g id="Layer_1-2" transform="translate(-5.2 0)">
    <g id="academic_grading">
      <path id="Path_68" data-name="Path 68" d="M40.3,1H7.7A1.538,1.538,0,0,0,6.2,2.5v43A1.453,1.453,0,0,0,7.6,47H32.1l9.7-9.7V2.5A1.473,1.473,0,0,0,40.3,1Z" fill="none" stroke="#000" stroke-linecap="round" stroke-linejoin="round" stroke-width="2"/>
      <path id="Path_69" data-name="Path 69" d="M41.8,37.3H32.2a.684.684,0,0,0-.7.7h0v3" fill="none" stroke="#000" stroke-linecap="round" stroke-linejoin="round" stroke-width="2"/>
      <path id="Path_70" data-name="Path 70" d="M14.4,31.4,21,15.8l6.7,15.6" fill="none" stroke="#000" stroke-linecap="round" stroke-linejoin="round" stroke-width="2"/>
      <path id="Path_71" data-name="Path 71" d="M17.3,25.5h7.4" fill="none" stroke="#000" stroke-linecap="round" stroke-linejoin="round" stroke-width="2"/>
      <path id="Path_72" data-name="Path 72" d="M30.7,15.8v6" fill="none" stroke="#000" stroke-linecap="round" stroke-linejoin="round" stroke-width="2"/>
      <path id="Path_73" data-name="Path 73" d="M27.7,18.8h5.9" fill="none" stroke="#000" stroke-linecap="round" stroke-linejoin="round" stroke-width="2"/>
    </g>
  </g>
</svg>
