<svg xmlns="http://www.w3.org/2000/svg" xmlns:xlink="http://www.w3.org/1999/xlink" width="71" height="38" viewBox="0 0 71 38">
  <defs>
    <clipPath id="clip-path">
      <rect id="Rectangle_332" data-name="Rectangle 332" width="71" height="38" transform="translate(0 -0.25)" fill="#fff" stroke="#707070" stroke-width="1"/>
    </clipPath>
  </defs>
  <g id="hide-eye" transform="translate(0 0.25)" clip-path="url(#clip-path)">
    <path id="Eye_DIsabled" data-name="Eye DIsabled" d="M46.3,26.017a1.057,1.057,0,0,0,0-1.294c-.389-.493-9.45-12.038-20.93-12.038a20.429,20.429,0,0,0-8.945,2.245L8.205,6.708A1.057,1.057,0,1,0,6.71,8.2l7.77,7.772A39.251,39.251,0,0,0,4.44,24.723a1.057,1.057,0,0,0,0,1.294c.389.493,9.45,12.038,20.93,12.038a20.421,20.421,0,0,0,8.945-2.245l8.277,8.279a1.058,1.058,0,1,0,1.5-1.5l-7.822-7.822A39.251,39.251,0,0,0,46.3,26.017ZM25.37,35.941c-8.956,0-16.655-8.184-18.712-10.571a37.509,37.509,0,0,1,9.372-7.846l2.687,2.687A8.411,8.411,0,0,0,30.528,32.023l2.192,2.19A17.843,17.843,0,0,1,25.37,35.941Zm5.159-6.907-8.822-8.822a6.323,6.323,0,0,1,8.822,8.822Zm-1.495,1.495a6.323,6.323,0,0,1-8.822-8.822Zm5.676,2.687-2.687-2.687A8.411,8.411,0,0,0,20.211,18.717l-2.19-2.192A17.856,17.856,0,0,1,25.37,14.8c8.956,0,16.655,8.184,18.712,10.571a37.509,37.509,0,0,1-9.372,7.846Z" transform="translate(10.13 -6.398)"/>
  </g>
</svg>
