<svg xmlns="http://www.w3.org/2000/svg" xmlns:xlink="http://www.w3.org/1999/xlink" width="48" height="54" viewBox="0 0 48 54">
  <defs>
    <clipPath id="clip-path">
      <rect id="Rectangle_284" data-name="Rectangle 284" width="48" height="54" transform="translate(998 738)" fill="#fff" stroke="#707070" stroke-width="1"/>
    </clipPath>
  </defs>
  <g id="lock-open" transform="translate(-998 -738)" clip-path="url(#clip-path)">
    <g id="lock-open-2" data-name="lock-open" transform="translate(988.989 734.23)">
      <path id="Path_860" data-name="Path 860" d="M33.011,33.011a5.5,5.5,0,0,0-1.34,10.819,1.375,1.375,0,0,0-.036.184v5.5a1.375,1.375,0,1,0,2.751,0v-5.5a1.376,1.376,0,0,0-.036-.184,5.5,5.5,0,0,0-1.34-10.819Zm0,8.253a2.751,2.751,0,1,1,2.751-2.751A2.751,2.751,0,0,1,33.011,41.264Z"/>
      <path id="Path_861" data-name="Path 861" d="M50.892,24.758H24.536l-1.7-9.7a6.877,6.877,0,0,1,5.579-7.978l2.71-.479A6.877,6.877,0,0,1,39.1,12.181l.6,3.5A1.375,1.375,0,0,0,42.4,15.2l-.613-3.477a9.645,9.645,0,0,0-11.152-7.81l-2.71.479a9.628,9.628,0,0,0-7.81,11.141l1.615,9.224h-6.6A4.126,4.126,0,0,0,11,28.885V45.39A12.393,12.393,0,0,0,23.383,57.77H42.639A12.393,12.393,0,0,0,55.019,45.39V28.885A4.126,4.126,0,0,0,50.892,24.758ZM52.268,45.39a9.628,9.628,0,0,1-9.628,9.628H23.383a9.628,9.628,0,0,1-9.628-9.628V28.885a1.375,1.375,0,0,1,1.375-1.375H50.892a1.375,1.375,0,0,1,1.375,1.375Z"/>
    </g>
  </g>
</svg>
