<svg xmlns="http://www.w3.org/2000/svg" xmlns:xlink="http://www.w3.org/1999/xlink" width="71" height="54" viewBox="0 0 71 54">
  <defs>
    <clipPath id="clip-path">
      <rect id="Rectangle_281" data-name="Rectangle 281" width="71" height="54" transform="translate(1207 784)" fill="#fff" stroke="#707070" stroke-width="1"/>
    </clipPath>
  </defs>
  <g id="Mask_Group_20" data-name="Mask Group 20" transform="translate(-1207 -784)" clip-path="url(#clip-path)">
    <g id="setting" transform="translate(1211.523 780.032)">
      <circle id="Ellipse_57" data-name="Ellipse 57" cx="11.652" cy="11.652" r="11.652" transform="translate(7.972 31.957) rotate(-22.675)" fill="none" stroke="#231f20" stroke-linecap="round" stroke-linejoin="round" stroke-miterlimit="10" stroke-width="1.935"/>
      <path id="Path_853" data-name="Path 853" d="M38.274,42.348a15.33,15.33,0,0,1-1.442,3.513l2.719,2.719-5.835,5.835-2.69-2.69a14.43,14.43,0,0,1-3.552,1.51V57H19.229V53.3a14.809,14.809,0,0,1-3.648-1.481L13,54.416,7.152,48.581l2.555-2.555a14.926,14.926,0,0,1-1.539-3.687h-3.6V34.084h3.6a15.166,15.166,0,0,1,1.539-3.668L7.152,27.852l5.835-5.835,2.584,2.594a14.809,14.809,0,0,1,3.648-1.481v-3.7h8.245V23.2a14.43,14.43,0,0,1,3.552,1.51l2.69-2.69,5.835,5.835-2.729,2.729a14.443,14.443,0,0,1,1.442,3.5h3.871v8.255H38.274Z" fill="none" stroke="#231f20" stroke-linecap="round" stroke-linejoin="round" stroke-miterlimit="10" stroke-width="1.935"/>
      <path id="Path_854" data-name="Path 854" d="M37.819,29.594a9.728,9.728,0,1,0-5.961-8.971,9.4,9.4,0,0,0,.426,2.835" fill="none" stroke="#231f20" stroke-linecap="round" stroke-linejoin="round" stroke-miterlimit="10" stroke-width="1.935"/>
      <path id="Path_855" data-name="Path 855" d="M26,19.442V17.177h3.01A13,13,0,0,1,30.29,14.11l-2.119-2.148,4.877-4.877,2.158,2.168a12.345,12.345,0,0,1,3.048-1.229V4.935h6.89V8.081a12.411,12.411,0,0,1,2.971,1.258l2.245-2.255,4.877,4.877-2.284,2.284a11.827,11.827,0,0,1,1.2,2.932h3.232v6.89H54.165a12.864,12.864,0,0,1-1.2,2.942l2.274,2.274-4.877,4.877-2.245-2.255a11.879,11.879,0,0,1-2.971,1.258V36.31h-3" fill="none" stroke="#231f20" stroke-linecap="round" stroke-linejoin="round" stroke-miterlimit="10" stroke-width="1.935"/>
      <line id="Line_1" data-name="Line 1" x1="0.01" transform="translate(37.965 33.135)" fill="none" stroke="#231f20" stroke-linecap="round" stroke-linejoin="round" stroke-miterlimit="10" stroke-width="1.935"/>
    </g>
  </g>
</svg>
