<svg xmlns="http://www.w3.org/2000/svg" xmlns:xlink="http://www.w3.org/1999/xlink" width="46" height="35" viewBox="0 0 46 35">
  <defs>
    <clipPath id="clip-path">
      <rect id="Rectangle_264" data-name="Rectangle 264" width="46" height="35" transform="translate(-5903 -1530)" fill="#fff"/>
    </clipPath>
  </defs>
  <g id="message" transform="translate(5903 1530)" clip-path="url(#clip-path)">
    <g id="_x32_" transform="translate(-5900.453 -1532.953)">
      <path id="_x32__1_" d="M37.642,34.186a7.749,7.749,0,0,0,3.264-6.139,7.665,7.665,0,0,0-2.915-5.863,13.137,13.137,0,0,0,.407-3.276c0-8.8-8.611-15.955-19.2-15.955S0,10.107,0,18.908A14.77,14.77,0,0,0,5.668,30.227,6.532,6.532,0,0,1,2.324,35L.132,36.171l2.312.906a7.061,7.061,0,0,0,2.593.447c2.983,0,6.517-1.417,9.277-3.2a23.2,23.2,0,0,0,9.633.029,11.5,11.5,0,0,0,6.73,2.077,12.171,12.171,0,0,0,2.892-.344c1.824,1.239,4.619,2.335,6.368,1.652A4.491,4.491,0,0,1,37.642,34.186ZM25.7,29.488a1.721,1.721,0,1,1,1.721-1.721A1.719,1.719,0,0,1,25.7,29.488Zm5.163,0a1.721,1.721,0,1,1,1.721-1.721A1.719,1.719,0,0,1,30.866,29.488Zm-.189-9.834c-5.651,0-10.235,3.758-10.235,8.393a7.231,7.231,0,0,0,1.475,4.332,20.762,20.762,0,0,1-7.556-.39l-.493-.12-.419.281A17.871,17.871,0,0,1,5.743,35.2a9.614,9.614,0,0,0,2.3-5.307l.092-.66-.534-.4a12.457,12.457,0,0,1-5.307-9.925c0-7.533,7.585-13.66,16.907-13.66s16.9,6.127,16.9,13.66a10.9,10.9,0,0,1-.172,1.939A11.9,11.9,0,0,0,30.677,19.654Zm5.353,9.834a1.721,1.721,0,1,1,1.721-1.721A1.719,1.719,0,0,1,36.03,29.488Z" fill="#231f20"/>
    </g>
  </g>
</svg>
