<svg xmlns="http://www.w3.org/2000/svg" xmlns:xlink="http://www.w3.org/1999/xlink" width="61" height="56" viewBox="0 0 61 56">
  <defs>
    <clipPath id="clip-path">
      <rect id="Rectangle_259" data-name="Rectangle 259" width="61" height="56" transform="translate(1320 333)" fill="#fff" stroke="#707070" stroke-width="1"/>
    </clipPath>
  </defs>
  <g id="presentation" transform="translate(-1320 -333)" clip-path="url(#clip-path)">
    <g id="_10427_-_Group_Class" data-name="10427 - Group Class" transform="translate(1311.426 321.926)">
      <g id="Group_116" data-name="Group 116">
        <path id="Path_820" data-name="Path 820" d="M64.34,44.066H13.809a.916.916,0,0,1-.916-.916V11.99a.916.916,0,0,1,.916-.916H64.34a.916.916,0,0,1,.916.916V43.15A.916.916,0,0,1,64.34,44.066ZM14.725,42.234h48.7V12.906h-48.7Z" fill="#212121" stroke="#707070" stroke-width="0.038"/>
      </g>
      <g id="Group_117" data-name="Group 117">
        <path id="Path_821" data-name="Path 821" d="M26.034,67.074H13.809a.916.916,0,0,1-.916-.916V59.066a4.355,4.355,0,0,1,4.35-4.35H22.6a4.355,4.355,0,0,1,4.35,4.35v7.093A.916.916,0,0,1,26.034,67.074ZM14.725,65.243H25.118V59.066A2.521,2.521,0,0,0,22.6,56.547H17.243a2.521,2.521,0,0,0-2.518,2.518Z" fill="#212121" stroke="#707070" stroke-width="0.038"/>
        <path id="Path_822" data-name="Path 822" d="M64.34,67.074H52.115a.916.916,0,0,1-.916-.916V59.066a4.355,4.355,0,0,1,4.35-4.35h5.357a4.355,4.355,0,0,1,4.35,4.35v7.093A.916.916,0,0,1,64.34,67.074ZM53.03,65.243H63.424V59.066a2.521,2.521,0,0,0-2.518-2.518H55.549a2.521,2.521,0,0,0-2.518,2.518Z" fill="#212121" stroke="#707070" stroke-width="0.038"/>
        <path id="Path_823" data-name="Path 823" d="M45.187,67.074H32.962a.916.916,0,0,1-.916-.916V59.066a4.355,4.355,0,0,1,4.35-4.35h5.357a4.355,4.355,0,0,1,4.35,4.35v7.093A.916.916,0,0,1,45.187,67.074ZM33.878,65.243H44.271V59.066a2.521,2.521,0,0,0-2.518-2.518H36.4a2.521,2.521,0,0,0-2.518,2.518Z" fill="#212121" stroke="#707070" stroke-width="0.038"/>
        <path id="Path_824" data-name="Path 824" d="M22.17,56.547a.916.916,0,0,1-.58-1.625,2.641,2.641,0,1,0-3.338,0,.916.916,0,1,1-1.158,1.419,4.472,4.472,0,1,1,5.655,0A.912.912,0,0,1,22.17,56.547Z" fill="#212121" stroke="#707070" stroke-width="0.038"/>
        <path id="Path_825" data-name="Path 825" d="M41.323,56.547a.916.916,0,0,1-.58-1.625,2.641,2.641,0,1,0-3.338,0,.916.916,0,1,1-1.158,1.419,4.472,4.472,0,1,1,5.655,0A.912.912,0,0,1,41.323,56.547Z" fill="#212121" stroke="#707070" stroke-width="0.038"/>
        <path id="Path_826" data-name="Path 826" d="M60.476,56.547a.916.916,0,0,1-.58-1.625,2.641,2.641,0,1,0-3.338,0A.916.916,0,0,1,55.4,56.341a4.472,4.472,0,1,1,5.655,0A.912.912,0,0,1,60.476,56.547Z" fill="#212121" stroke="#707070" stroke-width="0.038"/>
        <path id="Path_827" data-name="Path 827" d="M22.23,59.875H17.612a.916.916,0,1,1,0-1.832H22.23a.916.916,0,0,1,0,1.832Z" fill="#212121" stroke="#707070" stroke-width="0.038"/>
        <path id="Path_828" data-name="Path 828" d="M41.384,59.875H36.765a.916.916,0,0,1,0-1.832h4.619a.916.916,0,0,1,0,1.832Z" fill="#212121" stroke="#707070" stroke-width="0.038"/>
        <path id="Path_829" data-name="Path 829" d="M60.537,59.875H55.918a.916.916,0,0,1,0-1.832h4.618a.916.916,0,0,1,0,1.832Z" fill="#212121" stroke="#707070" stroke-width="0.038"/>
      </g>
      <path id="Path_830" data-name="Path 830" d="M67.464,67.074H10.684a.916.916,0,1,1,0-1.832h56.78a.916.916,0,1,1,0,1.832Z" fill="#212121" stroke="#707070" stroke-width="0.038"/>
      <g id="Group_121" data-name="Group 121">
        <g id="Group_120" data-name="Group 120">
          <g id="Group_118" data-name="Group 118">
            <path id="Path_831" data-name="Path 831" d="M32.189,29.875H27.281a.916.916,0,0,1-.916-.916V24.052a.916.916,0,0,1,.916-.916A5.83,5.83,0,0,1,33.1,28.96.916.916,0,0,1,32.189,29.875ZM28.2,28.044h2.97a4.006,4.006,0,0,0-2.97-2.97Z" fill="#212121" stroke="#707070" stroke-width="0.038"/>
            <path id="Path_832" data-name="Path 832" d="M23.853,38.212a5.824,5.824,0,1,1,0-11.648.916.916,0,0,1,.916.916v3.992H28.76a.916.916,0,0,1,.916.916A5.83,5.83,0,0,1,23.853,38.212Zm-.916-9.71a3.992,3.992,0,1,0,4.8,4.8H23.853a.916.916,0,0,1-.916-.916Z" fill="#212121" stroke="#707070" stroke-width="0.038"/>
          </g>
          <g id="Group_119" data-name="Group 119">
            <path id="Path_833" data-name="Path 833" d="M46.542,27.688H37.921a.916.916,0,1,1,0-1.832h8.621a.916.916,0,0,1,0,1.832Z" fill="#212121" stroke="#707070" stroke-width="0.038"/>
            <path id="Path_834" data-name="Path 834" d="M59.2,27.688H49.645a.916.916,0,0,1,0-1.832H59.2a.916.916,0,1,1,0,1.832Z" fill="#212121" stroke="#707070" stroke-width="0.038"/>
            <path id="Path_835" data-name="Path 835" d="M51.306,31.59H37.921a.916.916,0,0,1,0-1.832H51.306a.916.916,0,0,1,0,1.832Z" fill="#212121" stroke="#707070" stroke-width="0.038"/>
            <path id="Path_836" data-name="Path 836" d="M59.2,31.59H54.4a.916.916,0,0,1,0-1.832H59.2a.916.916,0,0,1,0,1.832Z" fill="#212121" stroke="#707070" stroke-width="0.038"/>
            <path id="Path_837" data-name="Path 837" d="M46.853,35.491H37.921a.916.916,0,0,1,0-1.832h8.932a.916.916,0,0,1,0,1.832Z" fill="#212121" stroke="#707070" stroke-width="0.038"/>
            <path id="Path_838" data-name="Path 838" d="M59.2,35.491H49.884a.916.916,0,0,1,0-1.832H59.2a.916.916,0,1,1,0,1.832Z" fill="#212121" stroke="#707070" stroke-width="0.038"/>
          </g>
        </g>
        <path id="Path_839" data-name="Path 839" d="M47.565,18.76H30.583a.916.916,0,0,1,0-1.832H47.565a.916.916,0,0,1,0,1.832Z" fill="#212121" stroke="#707070" stroke-width="0.038"/>
      </g>
    </g>
  </g>
</svg>
