<svg xmlns="http://www.w3.org/2000/svg" width="47.215" height="48" viewBox="0 0 47.215 48">
  <g id="Layer_1-2" transform="translate(-0.392 0)">
    <g id="groups-webinar">
      <g id="_Grupo_">
        <path id="Path_28" data-name="Path 28" d="M14.4,47c0-.7-.7-1.5-2.2-2.2l-3-1.5a9.71,9.71,0,0,1-3.7.7,9.857,9.857,0,0,1-3.8-.7m5.6-2.2c1.8-1.2,1.6-1.9,1.8-3.6a4.164,4.164,0,0,0-.3-2.7,3.535,3.535,0,0,0-2-1.6,4.468,4.468,0,0,0-2.8,0,3.178,3.178,0,0,0-2,1.6,4.236,4.236,0,0,0-.3,2.7c.2,1.7,0,2.5,1.8,3.6" fill="none" stroke="#000" stroke-linecap="round" stroke-linejoin="round" stroke-width="2"/>
      </g>
      <path id="Path_29" data-name="Path 29" d="M17.3,44.8l3-3H15.1" fill="none" stroke="#000" stroke-linecap="round" stroke-linejoin="round" stroke-width="2"/>
      <path id="Path_30" data-name="Path 30" d="M20.3,41.8V34.4a1.538,1.538,0,0,0-1.5-1.5H12.1" fill="none" stroke="#000" stroke-linecap="round" stroke-linejoin="round" stroke-width="2"/>
      <g id="_Grupo_2">
        <path id="Path_31" data-name="Path 31" d="M44.4,41.1c1.8-1.2,1.6-1.9,1.8-3.6a4.164,4.164,0,0,0-.3-2.7,3.535,3.535,0,0,0-2-1.6,4.468,4.468,0,0,0-2.8,0,3.178,3.178,0,0,0-2,1.6,4.236,4.236,0,0,0-.3,2.7c.2,1.7,0,2.5,1.8,3.6m5.7,2.2a9.5,9.5,0,0,1-7.4,0l-3,1.5c-1.5.7-2.2,1.5-2.2,2.2" fill="none" stroke="#000" stroke-linecap="round" stroke-linejoin="round" stroke-width="2"/>
      </g>
      <path id="Path_32" data-name="Path 32" d="M30.7,44.8l-3-3h5.2" fill="none" stroke="#000" stroke-linecap="round" stroke-linejoin="round" stroke-width="2"/>
      <path id="Path_33" data-name="Path 33" d="M27.7,41.8V34.4a1.538,1.538,0,0,1,1.5-1.5h6.7" fill="none" stroke="#000" stroke-linecap="round" stroke-linejoin="round" stroke-width="2"/>
      <g id="_Grupo_3">
        <path id="Path_34" data-name="Path 34" d="M44,15.8H30.7l-6,4.5V2.5A1.538,1.538,0,0,1,26.2,1H44a1.538,1.538,0,0,1,1.5,1.5V14.4A1.394,1.394,0,0,1,44,15.8Z" fill="none" stroke="#000" stroke-linecap="round" stroke-linejoin="round" stroke-width="2"/>
        <path id="Path_35" data-name="Path 35" d="M30,8.5h.7" fill="none" stroke="#000" stroke-linecap="round" stroke-linejoin="round" stroke-width="2"/>
        <path id="Path_36" data-name="Path 36" d="M40,8.5h.7" fill="none" stroke="#000" stroke-linecap="round" stroke-linejoin="round" stroke-width="2"/>
        <path id="Path_37" data-name="Path 37" d="M35,8.5h.7" fill="none" stroke="#000" stroke-linecap="round" stroke-linejoin="round" stroke-width="2"/>
      </g>
      <path id="Path_38" data-name="Path 38" d="M44,20.3v9.6" fill="none" stroke="#000" stroke-linecap="round" stroke-linejoin="round" stroke-width="2"/>
      <path id="Path_39" data-name="Path 39" d="M4,29.9V10.6a2.946,2.946,0,0,1,3-3H20.3" fill="none" stroke="#000" stroke-linecap="round" stroke-linejoin="round" stroke-width="2"/>
      <g id="_Grupo_4">
        <path id="Path_40" data-name="Path 40" d="M18.5,22.5c1.8-1.2,1.6-1.9,1.8-3.6a4.164,4.164,0,0,0-.3-2.7,3.535,3.535,0,0,0-2-1.6,4.782,4.782,0,0,0-2.9,0,3.178,3.178,0,0,0-2,1.6,4.236,4.236,0,0,0-.3,2.7c.2,1.7,0,2.5,1.8,3.6m10.9,6.7c0-1.5-.7-2.2-2.2-3l-3-1.5a7.886,7.886,0,0,1-3.7.7,9.366,9.366,0,0,1-3.7-.7l-3,1.5c-1.4.8-2.1,1.5-2.1,3" fill="none" stroke="#000" stroke-linecap="round" stroke-linejoin="round" stroke-width="2"/>
      </g>
    </g>
  </g>
</svg>
