<svg xmlns="http://www.w3.org/2000/svg" width="63.922" height="55.375" viewBox="0 0 63.922 55.375">
  <path id="students_new" d="M32.168,2.625a4.17,4.17,0,0,0-1.328.219L16.363,7.813a1.777,1.777,0,0,0,0,3.355l2.684.918A9.309,9.309,0,0,0,15.5,13.313c-2.574.141-4.4,2.035-4.687,4.9a15.918,15.918,0,0,0,.086,3.816c.031.234.07.527.066.594-.008.047-.016.09-.023.137a.879.879,0,0,1-.086.02,2.124,2.124,0,0,0-1.434,1.766,5.425,5.425,0,0,0,.125,2.391,4.2,4.2,0,0,0,1.98,2.8,15.779,15.779,0,0,0,1.57,3.309l-8.52,5.512A9.986,9.986,0,0,0,0,46.98v3.207A2.816,2.816,0,0,0,2.813,53H8v2a3.011,3.011,0,0,0,3,3H53a3.011,3.011,0,0,0,3-3V53h5.109a2.816,2.816,0,0,0,2.813-2.812V46.98a10.008,10.008,0,0,0-4.582-8.418l-7.77-5.031a15.341,15.341,0,0,0,1.879-3.793,4.18,4.18,0,0,0,1.98-2.809c.551-2.051,0-3.8-1.3-4.148a.415.415,0,0,1-.09-.02,9.117,9.117,0,0,0-.418-1.621c.1.031.2.059.289.1A1.005,1.005,0,0,0,55.27,20.1a9.763,9.763,0,0,0-9.691-8.113l2.391-.816a1.775,1.775,0,0,0,0-3.355L33.5,2.844A4.17,4.17,0,0,0,32.168,2.625Zm0,2a2.093,2.093,0,0,1,.676.109L46.691,9.488l-13.848,4.75a2.067,2.067,0,0,1-1.355,0L17.641,9.488,31.488,4.734A2.117,2.117,0,0,1,32.168,4.625Zm5.348,2.219a.968.968,0,0,0-.395.043L31.867,8.535a1,1,0,0,0,.3,1.953.911.911,0,0,0,.3-.047L37.719,8.8a1,1,0,0,0-.2-1.953Zm-15.375,6.3,8.7,2.988a4.141,4.141,0,0,0,2.656,0l8.68-2.98.6,3.895-3.918-.031a8.149,8.149,0,0,0-3.59.836l-2.922,1.457a.72.72,0,0,1-.645,0l-2.918-1.457a8.141,8.141,0,0,0-3.594-.836l-3.641.031Zm22.348.82h.672a7.73,7.73,0,0,1,7.711,5.051,1.577,1.577,0,0,0-1.023.434,1.653,1.653,0,0,0-.277,1.891,8.024,8.024,0,0,1,.59,2.617,1.008,1.008,0,0,0,.57.832,1.062,1.062,0,0,0,.84.027,3.082,3.082,0,0,1-.07,1.6,2.717,2.717,0,0,1-.84,1.5.982.982,0,0,0-.949.719,13.684,13.684,0,0,1-1.84,3.84A11.279,11.279,0,0,1,48.7,33.922a9.336,9.336,0,0,1-.887.809,1,1,0,0,0,.617,1.781,1.011,1.011,0,0,0,.621-.211,9.783,9.783,0,0,0,1.27-1.191l7.93,5.129a8.009,8.009,0,0,1,3.672,6.742v3.207a.809.809,0,0,1-.812.813H56V49.922a13.034,13.034,0,0,0-6.488-11.25l-8.723-5.051a19.373,19.373,0,0,0,2.551-5.09,5,5,0,0,0,2.508-3.48,6.536,6.536,0,0,0,.164-2.953,2.465,2.465,0,0,0-1.641-2.047c-.062-.02-.141-.031-.219-.051-.016-.57-.035-1.02-.055-1.359a1.8,1.8,0,0,0,.25-.238,1.874,1.874,0,0,0,.43-1.5l-.449-2.93C44.383,13.977,44.438,13.969,44.488,13.969Zm-24.5.02-.445,2.918a1.868,1.868,0,0,0,.426,1.5l0,0c-.031.375-.055.891-.082,1.594-.078.02-.152.031-.219.051-1.523.41-2.141,2.512-1.484,5a5.032,5.032,0,0,0,2.512,3.48A20.062,20.062,0,0,0,23.238,33.6l-8.75,5.074A13.034,13.034,0,0,0,8,49.922V51H2.813A.807.807,0,0,1,2,50.188V46.98a8.009,8.009,0,0,1,3.672-6.742l8.605-5.566a11.931,11.931,0,0,0,.844.918,1,1,0,0,0,1.391-1.437,12.964,12.964,0,0,1-3.234-5.516.933.933,0,0,0-.906-.707,2.45,2.45,0,0,1-.891-1.512,3.128,3.128,0,0,1-.07-1.59,1.016,1.016,0,0,0,.871-.023.994.994,0,0,0,.543-.84,7.558,7.558,0,0,1,.109-.992,4.129,4.129,0,0,0-.051-1.191A14.08,14.08,0,0,1,12.8,18.41c.2-1.973,1.3-3.105,3.027-3.105a1.011,1.011,0,0,0,.6-.2A7.587,7.587,0,0,1,19.988,13.988ZM25.2,19.02a6.156,6.156,0,0,1,2.688.621L30.809,21.1a2.7,2.7,0,0,0,2.43,0l2.918-1.457a5.86,5.86,0,0,1,2.684-.621l3.273.027c.023.535.043,1.2.059,1.574l.027.66a.982.982,0,0,0,.539.84,1.015,1.015,0,0,0,1-.051c.059-.039.1-.059.121-.07a3.4,3.4,0,0,1,.063,2.531c-.391,1.461-1.133,2.141-1.363,2.16a1.009,1.009,0,0,0-.961.711,18.149,18.149,0,0,1-2.52,5.227A12.936,12.936,0,0,1,37.8,34.2a8.081,8.081,0,0,1-5.777,2.926,8.147,8.147,0,0,1-5.77-2.957,15.785,15.785,0,0,1-1.281-1.57,18.016,18.016,0,0,1-2.531-5.2,1.1,1.1,0,0,0-.949-.711c-.23-.02-.969-.7-1.359-2.16a3.717,3.717,0,0,1,.012-2.543.8.8,0,0,1,.168.082,1.015,1.015,0,0,0,1,.051,1,1,0,0,0,.539-.84l.023-.609c.012-.383.035-1.07.063-1.625ZM24.48,35.188c2.059,2.344,4.668,3.941,7.539,3.941s5.469-1.59,7.52-3.918L48.512,40.4A11.028,11.028,0,0,1,54,49.922V55a1,1,0,0,1-1,1H11a1,1,0,0,1-1-1V49.922a11.028,11.028,0,0,1,5.488-9.52ZM24.063,39a1,1,0,0,0-.512,1.895l8,4A1.023,1.023,0,0,0,32,45a1.011,1.011,0,0,0,.449-.105l8-4a1,1,0,1,0-.9-1.789L32,42.883l-7.551-3.777A1.08,1.08,0,0,0,24.063,39ZM12,50a1,1,0,0,0-1,1v2a1,1,0,0,0,2,0V51A1,1,0,0,0,12,50Zm5,0a1,1,0,0,0-1,1v2a1,1,0,0,0,2,0V51A1,1,0,0,0,17,50Zm5,0a1,1,0,0,0-1,1v2a1,1,0,0,0,2,0V51A1,1,0,0,0,22,50Zm5,0a1,1,0,0,0-1,1v2a1,1,0,0,0,2,0V51A1,1,0,0,0,27,50Zm5,0a1,1,0,0,0-1,1v2a1,1,0,0,0,2,0V51A1,1,0,0,0,32,50Zm5,0a1,1,0,0,0-1,1v2a1,1,0,0,0,2,0V51A1,1,0,0,0,37,50Zm5,0a1,1,0,0,0-1,1v2a1,1,0,0,0,2,0V51A1,1,0,0,0,42,50Zm5,0a1,1,0,0,0-1,1v2a1,1,0,0,0,2,0V51A1,1,0,0,0,47,50Zm5,0a1,1,0,0,0-1,1v2a1,1,0,0,0,2,0V51A1,1,0,0,0,52,50Z" transform="translate(0 -2.625)"/>
</svg>
