<svg xmlns="http://www.w3.org/2000/svg" width="60" height="58" viewBox="0 0 60 58">
  <path id="teacher" d="M32,4a14.591,14.591,0,0,0-7.311,2C21,6.14,18.42,8.76,18,12.9a23.012,23.012,0,0,0,.131,5.6,6.986,6.986,0,0,1,.09,1,1.824,1.824,0,0,1-.09.561,2.056,2.056,0,0,0-.441.059C16.039,20.559,16,22,16,24c0,2.072,1.751,5.23,2.971,5.73A23.1,23.1,0,0,0,21.52,35l0,0c.053.107.138.237.219.363L8.311,41.379l-.02.01A11.045,11.045,0,0,0,2,51.328V59a3,3,0,0,0,3,3H59a3,3,0,0,0,3-3V51.328a11.054,11.054,0,0,0-6.311-9.949L42.24,35.355,42.48,35A23.143,23.143,0,0,0,45,29.73c1.23-.46,3-2.73,3-5.73,0-2-.121-3.431-1.721-3.881a1.95,1.95,0,0,0-.43-.059,15.3,15.3,0,0,0-.92-3.441V16.51a5.284,5.284,0,0,1,1.381.359A1,1,0,0,0,47.67,15.73C46,8.41,40.56,4,33,4Zm0,2h1c6.07,0,10.45,3.1,12.25,8.58a2.3,2.3,0,0,0-1.9.48,2,2,0,0,0-.289,2.3,12.1,12.1,0,0,1,.9,4.07,1,1,0,0,0,1.049.949.988.988,0,0,0,.488-.158.666.666,0,0,1,.271-.121c.241.08.68,1.3.18,3.15s-1.439,2.619-1.729,2.619a1,1,0,0,0-1,.721C41.591,34.26,37.18,40,32,40s-9.589-5.74-11.279-11.4a1,1,0,0,0-.951-.719h-.02c-.29,0-1.24-.781-1.73-2.621s-.05-3.09.18-3.15a.607.607,0,0,1,.271.121,1,1,0,0,0,1.377-.316A1.015,1.015,0,0,0,20,21.43a12.237,12.237,0,0,1,.17-1.539,5.75,5.75,0,0,0-.08-1.641A21.235,21.235,0,0,1,20,13.1C20.31,9.91,22.19,8,25,8a1,1,0,0,0,.6-.2A12.083,12.083,0,0,1,32,6Zm-5.828,6.125a2,2,0,0,0-1.492.895l-1.6,2.43a1,1,0,0,0,1.67,1.1l1.6-2.432,1.57.762A21.122,21.122,0,0,0,37.109,17H39.66a1,1,0,0,0,0-2H37.109a19.11,19.11,0,0,1-8.32-1.92l-1.559-.76A1.993,1.993,0,0,0,26.172,12.125ZM21,22a1,1,0,0,0-.98,1.2l1,5A1,1,0,0,0,22,29h7a1,1,0,0,0,.98-.8l.84-4.2H33.18l.84,4.2A1,1,0,0,0,35,29h7a1,1,0,0,0,.98-.8l1-5A1,1,0,0,0,43,22H21Zm1.221,2h6.559l-.6,3H22.82Zm13,0h6.559l-.6,3H35.82ZM22.977,37a15.52,15.52,0,0,0,4.162,3.615l1.375,4.814a17.479,17.479,0,0,1-8.3-5.988,1,1,0,1,0-1.578,1.23,19.141,19.141,0,0,0,10.32,6.947L28.07,60H5a1,1,0,0,1-1-1V51.328A9.04,9.04,0,0,1,9.139,43.2Zm18.053,0,13.822,6.189A9.043,9.043,0,0,1,60,51.328V59a1,1,0,0,1-1,1H35.93l-.883-12.369a18.916,18.916,0,0,0,10.166-6.66,1,1,0,1,0-1.562-1.25,17.17,17.17,0,0,1-8.164,5.715l1.375-4.814A15.566,15.566,0,0,0,41.029,37ZM29.508,41.637a8.723,8.723,0,0,0,4.982,0l-1.223,4.281A10.963,10.963,0,0,1,32,46a10.7,10.7,0,0,1-1.268-.084Zm1.428,6.311c.357.031.712.053,1.064.053s.708-.021,1.064-.051L33.926,60H30.074ZM8,55a1,1,0,0,0-1,1v2a1,1,0,0,0,2,0V56A1,1,0,0,0,8,55Zm5,0a1,1,0,0,0-1,1v2a1,1,0,0,0,2,0V56A1,1,0,0,0,13,55Zm5,0a1,1,0,0,0-1,1v2a1,1,0,0,0,2,0V56A1,1,0,0,0,18,55Zm5,0a1,1,0,0,0-1,1v2a1,1,0,0,0,2,0V56A1,1,0,0,0,23,55Zm18,0a1,1,0,0,0-1,1v2a1,1,0,0,0,2,0V56A1,1,0,0,0,41,55Zm5,0a1,1,0,0,0-1,1v2a1,1,0,0,0,2,0V56A1,1,0,0,0,46,55Zm5,0a1,1,0,0,0-1,1v2a1,1,0,0,0,2,0V56A1,1,0,0,0,51,55Zm5,0a1,1,0,0,0-1,1v2a1,1,0,0,0,2,0V56A1,1,0,0,0,56,55Z" transform="translate(-2 -4)"/>
</svg>
