<svg id="Trash_Icon" data-name="Trash Icon" xmlns="http://www.w3.org/2000/svg" width="21.05" height="22.77" viewBox="0 0 21.05 22.77">
  <path id="XMLID_1348_" d="M21.455,8.356,20.7,22.819a1,1,0,0,1-.979.951H7.332a1,1,0,0,1-.979-.951L5.595,8.356a.981.981,0,1,1,1.958-.1l.71,13.512H18.812l.71-13.512a.969.969,0,1,1,1.934.1ZM24.05,5a.993.993,0,0,1-.979,1H3.979a1,1,0,0,1,0-2H9.364V1.751A.715.715,0,0,1,10.147,1H16.9a.715.715,0,0,1,.783.751V4h5.385A.993.993,0,0,1,24.05,5ZM11.077,4h4.9V2.752h-4.9Zm.416,16.264h0a.928.928,0,0,0,.857-.951l-.245-10.81a.882.882,0,0,0-.881-.876.848.848,0,0,0-.832.9l.245,10.835A.9.9,0,0,0,11.493,20.267Zm4.039,0a.877.877,0,0,0,.857-.876l.245-10.81a.857.857,0,1,0-1.713-.05l-.245,10.81a.874.874,0,0,0,.857.926Z" transform="translate(-3 -1)"/>
</svg>
