<svg id="Layer_2" data-name="Layer 2" xmlns="http://www.w3.org/2000/svg" width="48.378" height="48.378" viewBox="0 0 48.378 48.378">
  <g id="Layer_1" data-name="Layer 1">
    <g id="teacher-classroom">
      <g id="_Grupo_" data-name="&lt;Grupo&gt;">
        <path id="Path_48" data-name="Path 48" d="M33.65,47c-.4-.64-.55-1.79-1.48-2.23l-3.71-1.48a9,9,0,0,1-3.71.74A9,9,0,0,1,21,43.29l-3.71,1.48c-.93.43-1.09,1.59-1.48,2.23M27,41.06c2.07-1.38,1.88-2.26,2.12-4.27a5.49,5.49,0,0,0-.35-3.24,4,4,0,0,0-2.32-1.86,5.3,5.3,0,0,0-3.37,0,4,4,0,0,0-2.32,1.86,5.49,5.49,0,0,0-.35,3.24c.25,2,.05,2.89,2.12,4.27" fill="none" stroke="#000" stroke-linecap="round" stroke-linejoin="round" stroke-width="2"/>
      </g>
      <g id="_Grupo_2" data-name="&lt;Grupo&gt;">
        <path id="Path_49" data-name="Path 49" d="M47,47c-.4-.64-.55-1.79-1.48-2.23l-3.71-1.48a9.65,9.65,0,0,1-7.42,0m5.93-2.23c2.07-1.38,1.88-2.26,2.12-4.27a5.49,5.49,0,0,0-.35-3.24,4,4,0,0,0-2.32-1.86,5.3,5.3,0,0,0-3.37,0,4,4,0,0,0-2.32,1.86,5.49,5.49,0,0,0-.35,3.24c.25,2,.05,2.89,2.12,4.27" fill="none" stroke="#000" stroke-linecap="round" stroke-linejoin="round" stroke-width="2"/>
      </g>
      <path id="Path_50" data-name="Path 50" d="M16.58,1H47V26.97H20.29" fill="none" stroke="#000" stroke-linecap="round" stroke-linejoin="round" stroke-width="2"/>
      <g id="_Grupo_3" data-name="&lt;Grupo&gt;">
        <path id="Path_51" data-name="Path 51" d="M11.79,10.65C13.54,9.48,13.37,8.73,13.58,7a4.64,4.64,0,0,0-.3-2.74,3.41,3.41,0,0,0-2-1.58,4.49,4.49,0,0,0-2.85,0,3.41,3.41,0,0,0-2,1.58A4.64,4.64,0,0,0,6.23,7c.21,1.7,0,2.45,1.79,3.61M3.23,32.9h0A2.23,2.23,0,0,1,1,30.68V18.06c0-2.23.55-2.53,1.48-3l3.71-1.48a9,9,0,0,0,3.71.74,9,9,0,0,0,3.71-.74l14.26-2a1.48,1.48,0,0,1,1.65,1.11l.07.27a1.48,1.48,0,0,1-1,1.79l-12,3.32L15.84,27V41.1" fill="none" stroke="#000" stroke-linecap="round" stroke-linejoin="round" stroke-width="2"/>
        <path id="Path_52" data-name="Path 52" d="M3.97,31.42v9.64" fill="none" stroke="#000" stroke-linecap="round" stroke-linejoin="round" stroke-width="2"/>
      </g>
      <path id="Path_53" data-name="Path 53" d="M32.16,12.13,40.32,9.9" fill="none" stroke="#000" stroke-linecap="round" stroke-linejoin="round" stroke-width="2"/>
      <path id="Path_54" data-name="Path 54" d="M9.9,35.13v5.93" fill="none" stroke="#000" stroke-linecap="round" stroke-linejoin="round" stroke-width="2"/>
    </g>
  </g>
</svg>
