<svg xmlns="http://www.w3.org/2000/svg" width="21.526" height="21.532" viewBox="0 0 21.526 21.532">
  <path id="XMLID_1898_" d="M21.228,19.73,13.083,11.7a7.123,7.123,0,0,0,1.545-4.447A7.314,7.314,0,0,0,0,7.255a7.292,7.292,0,0,0,7.326,7.255,7.147,7.147,0,0,0,4.236-1.357l8.191,8.074a1.01,1.01,0,0,0,.726.3,1.024,1.024,0,0,0,.749-.3A1.089,1.089,0,0,0,21.228,19.73ZM1.872,7.255A5.414,5.414,0,0,1,7.326,1.872a5.414,5.414,0,0,1,5.453,5.383,5.454,5.454,0,0,1-10.906,0Zm9.1.117a.829.829,0,0,1-.819.819H8.191v1.872a.819.819,0,0,1-1.638,0V8.191H4.47a.819.819,0,1,1,0-1.638H6.553V4.423a.819.819,0,0,1,1.638,0v2.13h1.966A.814.814,0,0,1,10.977,7.372Z"/>
</svg>
