<svg xmlns="http://www.w3.org/2000/svg" width="24" height="28.8" viewBox="0 0 24 28.8">
  <path id="StrokeErase2" d="M406.8,256a1.2,1.2,0,0,1,0,2.4h-7.894a.478.478,0,0,0-.366.15.527.527,0,0,0-.141.375.466.466,0,0,0,.15.337l6.188,6.188a2.97,2.97,0,0,1,.637.938,2.779,2.779,0,0,1,.225,1.106,2.89,2.89,0,0,1-2.906,2.906H389.306a.478.478,0,0,0-.366.15.527.527,0,0,0-.141.375.466.466,0,0,0,.15.337l8.588,8.588a2.971,2.971,0,0,1,.637.938,2.779,2.779,0,0,1,.225,1.106,2.89,2.89,0,0,1-2.906,2.906H385.2a1.2,1.2,0,0,1,0-2.4h10.294a.478.478,0,0,0,.366-.15.527.527,0,0,0,.141-.375.466.466,0,0,0-.15-.337l-8.588-8.588a2.971,2.971,0,0,1-.638-.937,2.78,2.78,0,0,1-.225-1.106A2.89,2.89,0,0,1,389.306,268h13.388a.478.478,0,0,0,.366-.15.527.527,0,0,0,.141-.375.466.466,0,0,0-.15-.338l-6.187-6.187a2.97,2.97,0,0,1-.637-.937,2.779,2.779,0,0,1-.225-1.106A2.89,2.89,0,0,1,398.906,256Z" transform="translate(-384 -256)"/>
</svg>
